<svg xmlns="http://www.w3.org/2000/svg" viewBox="0 0 220 220" width="220" height="220">
  <rect width="220" height="220" fill="white"/>

  <!-- Rama izquierda -->
  <g fill="#1C3D2A">
    <ellipse cx="38" cy="118" rx="12" ry="5.5" transform="rotate(15,38,118)"/>
    <ellipse cx="33" cy="104" rx="12" ry="5.5" transform="rotate(0,33,104)"/>
    <ellipse cx="32" cy="89"  rx="11" ry="5"   transform="rotate(-12,32,89)"/>
    <ellipse cx="35" cy="75"  rx="11" ry="5"   transform="rotate(-25,35,75)"/>
    <ellipse cx="42" cy="62"  rx="10" ry="4.5" transform="rotate(-38,42,62)"/>
    <ellipse cx="52" cy="51"  rx="10" ry="4.5" transform="rotate(-50,52,51)"/>
    <ellipse cx="64" cy="43"  rx="9"  ry="4"   transform="rotate(-62,64,43)"/>
    <ellipse cx="77" cy="37"  rx="9"  ry="4"   transform="rotate(-74,77,37)"/>
    <ellipse cx="91" cy="34"  rx="8"  ry="3.5" transform="rotate(-85,91,34)"/>
    <ellipse cx="36" cy="131" rx="12" ry="5.5" transform="rotate(28,36,131)"/>
    <ellipse cx="38" cy="145" rx="12" ry="5.5" transform="rotate(40,38,145)"/>
    <ellipse cx="44" cy="157" rx="11" ry="5"   transform="rotate(52,44,157)"/>
    <ellipse cx="53" cy="167" rx="11" ry="5"   transform="rotate(62,53,167)"/>
    <ellipse cx="64" cy="174" rx="10" ry="4.5" transform="rotate(72,64,174)"/>
    <path d="M105,178 Q70,165 35,110" stroke="#1C3D2A" stroke-width="2.5" fill="none" stroke-linecap="round"/>
  </g>

  <!-- Rama derecha (espejo en x=110) -->
  <g fill="#1C3D2A" transform="translate(220,0) scale(-1,1)">
    <ellipse cx="38" cy="118" rx="12" ry="5.5" transform="rotate(15,38,118)"/>
    <ellipse cx="33" cy="104" rx="12" ry="5.5" transform="rotate(0,33,104)"/>
    <ellipse cx="32" cy="89"  rx="11" ry="5"   transform="rotate(-12,32,89)"/>
    <ellipse cx="35" cy="75"  rx="11" ry="5"   transform="rotate(-25,35,75)"/>
    <ellipse cx="42" cy="62"  rx="10" ry="4.5" transform="rotate(-38,42,62)"/>
    <ellipse cx="52" cy="51"  rx="10" ry="4.5" transform="rotate(-50,52,51)"/>
    <ellipse cx="64" cy="43"  rx="9"  ry="4"   transform="rotate(-62,64,43)"/>
    <ellipse cx="77" cy="37"  rx="9"  ry="4"   transform="rotate(-74,77,37)"/>
    <ellipse cx="91" cy="34"  rx="8"  ry="3.5" transform="rotate(-85,91,34)"/>
    <ellipse cx="36" cy="131" rx="12" ry="5.5" transform="rotate(28,36,131)"/>
    <ellipse cx="38" cy="145" rx="12" ry="5.5" transform="rotate(40,38,145)"/>
    <ellipse cx="44" cy="157" rx="11" ry="5"   transform="rotate(52,44,157)"/>
    <ellipse cx="53" cy="167" rx="11" ry="5"   transform="rotate(62,53,167)"/>
    <ellipse cx="64" cy="174" rx="10" ry="4.5" transform="rotate(72,64,174)"/>
    <path d="M105,178 Q70,165 35,110" stroke="#1C3D2A" stroke-width="2.5" fill="none" stroke-linecap="round"/>
  </g>

  <!-- Letras FP doradas -->
  <text x="110" y="130"
        font-family="Georgia,'Times New Roman',serif"
        font-size="72" font-weight="bold"
        fill="#C9A227" text-anchor="middle" letter-spacing="-3">FP</text>
</svg>
